<svg width="100" height="151" viewBox="0 0 100 151" fill="none" xmlns="http://www.w3.org/2000/svg">
<path d="M55.1565 115.64L40.467 99.6453M40.467 99.6453L32.0475 90.4774C31.0323 89.2193 29.8261 85.9481 33.1223 82.9285C34.436 81.6703 37.8157 79.9089 40.8253 82.9285L62.3221 105.216C65.6063 108.571 72.1032 116.935 71.8165 123.549C72.1151 126.365 71.6732 133.506 67.5172 139.545C64.4121 143.619 55.7297 151.372 45.8412 149.79C43.4527 149.73 37.2067 148.46 31.3309 143.859L22.1948 134.333C20.5825 132.356 19.7584 128.905 22.1948 126.604C23.0905 125.466 27.0248 123.369 30.3744 125.706L36.526 131.996L27.3898 122.291C25.5984 120.134 24.5235 116 27.0315 113.304C28.2855 111.686 32.4057 109.889 35.6236 112.765L45.8412 123.549L32.0475 108.99C30.9726 107.732 29.4679 104.461 32.0475 101.441C33.0626 100.064 36.1677 97.7772 40.467 99.6453Z" stroke="#526268"/>
<path d="M53.0068 95.1506L56.2314 87.9611C56.8882 86.2836 59.3126 83.4318 63.7552 85.4448C65.3078 86.2237 68.592 88.6801 67.5172 92.2748L62.3221 104.856" stroke="#526268"/>
<path d="M64.508 33.7076C56.6115 30.2656 51.9735 35.366 49.6319 38.6828C44.6733 31.0542 37.373 32.1874 34.3427 33.7076C28.7228 36.361 27.8689 42.2759 28.1443 44.9017C28.4749 52.862 35.0314 59.6891 38.0617 62.7294C40.0451 64.3878 43.1581 67.0136 44.6732 67.7046C48.3096 69.363 51.6981 68.8102 52.9377 68.1192C55.9129 66.7925 58.5851 64.8024 59.5493 63.9732C68.1443 57.008 70.5686 48.3567 70.7063 44.9017C71.0369 38.5999 66.7118 34.8132 64.508 33.7076Z" fill="#526268"/>
<line x1="51.4897" x2="51.4897" y2="16.5839" stroke="#526268" stroke-width="0.5"/>
<line y1="-0.25" x2="16.5564" y2="-0.25" transform="matrix(0.705932 -0.70828 0.705932 0.70828 74.3801 27.4813)" stroke="#526268" stroke-width="0.5"/>
<line x1="83.4714" y1="51.9893" x2="100" y2="51.9893" stroke="#526268" stroke-width="0.5"/>
<line x1="0.000244141" y1="51.9893" x2="16.5292" y2="51.9893" stroke="#526268" stroke-width="0.5"/>
<line y1="-0.25" x2="16.5564" y2="-0.25" transform="matrix(0.705932 0.70828 -0.705932 0.70828 14.876 14.9255)" stroke="#526268" stroke-width="0.5"/>
<line y1="-0.25" x2="10.7743" y2="-0.25" transform="matrix(0.3816 0.924328 -0.923429 0.383769 33.0579 8.29199)" stroke="#526268" stroke-width="0.5"/>
<line y1="-0.25" x2="10.7743" y2="-0.25" transform="matrix(0.3816 -0.924328 0.923429 0.383769 64.4629 18.251)" stroke="#526268" stroke-width="0.5"/>
<line y1="-0.25" x2="10.749" y2="-0.25" transform="matrix(0.923429 -0.383769 0.3816 0.924328 81.8181 38.6851)" stroke="#526268" stroke-width="0.5"/>
<line y1="-0.25" x2="10.749" y2="-0.25" transform="matrix(0.923429 -0.383769 0.3816 0.924327 8.26465 68.8024)" stroke="#526268" stroke-width="0.5"/>
<line y1="-0.25" x2="10.749" y2="-0.25" transform="matrix(0.923429 0.383769 -0.3816 0.924328 8.26465 34.8262)" stroke="#526268" stroke-width="0.5"/>
<line y1="-0.25" x2="10.749" y2="-0.25" transform="matrix(0.923429 0.383769 -0.3816 0.924328 81.8181 64.6772)" stroke="#526268" stroke-width="0.5"/>
</svg>
